<svg viewBox="0 0 200 80" xmlns="http://www.w3.org/2000/svg"><path d="M0 0h1.538v60H0zm4.615 0h1.539v60H4.615zm3.077 0h3.077v60H7.692zm4.616 0h3.077v60h-3.077zm4.615 0h1.539v60h-1.539zM20 0h1.538v60H20zm3.077 0h1.538v60h-1.538zm4.615 0h1.539v60h-1.539zm3.077 0h3.077v60H30.77zm4.616 0h3.077v60h-3.077zM40 0h1.538v60H40zm3.077 0h1.538v60h-1.538zm4.615 0h3.077v60h-3.077zm4.616 0h1.538v60h-1.538zm3.077 0h3.077v60h-3.077zM60 0h1.538v60H60zm3.077 0h1.538v60h-1.538zm4.615 0h3.077v60h-3.077zm4.616 0h3.077v60h-3.077zm4.615 0h1.539v60h-1.539zM80 0h1.538v60H80zm3.077 0h3.077v60h-3.077zm6.154 0h1.538v60h-1.538zm3.077 0h1.538v60h-1.538zm3.077 0h3.077v60h-3.077zM100 0h1.538v60H100zm3.077 0h1.538v60h-1.538zm4.615 0h3.077v60h-3.077zm4.616 0h1.538v60h-1.538zm3.077 0h3.077v60h-3.077zM120 0h3.077v60H120zm4.615 0h1.539v60h-1.539zm4.616 0h3.077v60h-3.077zm4.615 0h1.539v60h-1.539zm3.077 0h1.539v60h-1.539zM140 0h3.077v60H140zm4.615 0h3.077v60h-3.077zm6.154 0h1.539v60h-1.539zm3.077 0h1.539v60h-1.539zm3.077 0h1.539v60h-1.539zM160 0h1.538v60H160zm3.077 0h1.538v60h-1.538zm4.615 0h3.077v60h-3.077zm4.616 0h1.538v60h-1.538zm3.077 0h3.077v60h-3.077zM180 0h1.538v60H180zm4.615 0h1.539v60h-1.539zm3.077 0h3.077v60h-3.077zm4.616 0h3.077v60h-3.077zm4.615 0h1.539v60h-1.539z"/><text font-family="Montserrat" font-size="16"><tspan x="10" y="76" text-anchor="middle">*</tspan><tspan x="30" y="76" text-anchor="middle">7</tspan><tspan x="50" y="76" text-anchor="middle">4</tspan><tspan x="70" y="76" text-anchor="middle">0</tspan><tspan x="90" y="76" text-anchor="middle">2</tspan><tspan x="110" y="76" text-anchor="middle">4</tspan><tspan x="130" y="76" text-anchor="middle">5</tspan><tspan x="150" y="76" text-anchor="middle">3</tspan><tspan x="170" y="76" text-anchor="middle">4</tspan><tspan x="190" y="76" text-anchor="middle">*</tspan></text></svg>